<?xml version="1.0" standalone="no"?>
<!DOCTYPE svg PUBLIC "-//W3C//DTD SVG 1.1//EN" "http://www.w3.org/Graphics/SVG/1.1/DTD/svg11.dtd" >
<!--
2013-9-30: Created.
-->
<svg>
<metadata>
Created by iconfont
</metadata>
<defs>

<font id="iconfont" horiz-adv-x="1024" >
  <font-face
    font-family="iconfont"
    font-weight="500"
    font-stretch="normal"
    units-per-em="1024"
    ascent="896"
    descent="-128"
  />
    <missing-glyph />
    
    <glyph glyph-name="x" unicode="x" horiz-adv-x="1001"
d="M281 543q-27 -1 -53 -1h-83q-18 0 -36.5 -6t-32.5 -18.5t-23 -32t-9 -45.5v-76h912v41q0 16 -0.5 30t-0.5 18q0 13 -5 29t-17 29.5t-31.5 22.5t-49.5 9h-133v-97h-438v97zM955 310v-52q0 -23 0.5 -52t0.5 -58t-10.5 -47.5t-26 -30t-33 -16t-31.5 -4.5q-14 -1 -29.5 -0.5
t-29.5 0.5h-32l-45 128h-439l-44 -128h-29h-34q-20 0 -45 1q-25 0 -41 9.5t-25.5 23t-13.5 29.5t-4 30v167h911zM163 247q-12 0 -21 -8.5t-9 -21.5t9 -21.5t21 -8.5q13 0 22 8.5t9 21.5t-9 21.5t-22 8.5zM316 123q-8 -26 -14 -48q-5 -19 -10.5 -37t-7.5 -25t-3 -15t1 -14.5
t9.5 -10.5t21.5 -4h37h67h81h80h64h36q23 0 34 12t2 38q-5 13 -9.5 30.5t-9.5 34.5q-5 19 -11 39h-368zM336 498v228q0 11 2.5 23t10 21.5t20.5 15.5t34 6h188q31 0 51.5 -14.5t20.5 -52.5v-227h-327z" />
    

    
    <glyph glyph-name="iconfont05" unicode="&#58884;" d="M963.632 695.721l-104.049 0-193.739 0 0 35.253c0 47.4337-41.8823 93.9061-89.3259 93.9061l-129.038 0c-47.4449 0-82.1799-46.4724-82.1799-93.9061l0-35.253-193.739 0-111.196 0c-11.8876 0-21.5062-9.85708-21.5062-21.7337 0-11.8765 9.61863-21.7337 21.5062-21.7337l111.196 0 0-566.47c0-83.0108 63.8791-142.663 146.88-142.663l387.114 0c83.0009 0 154.027 59.6516 154.027 142.663l0 566.47 104.049 0c11.8876 0 21.5062 9.85708 21.5062 21.7337C985.138 685.865 975.52 695.721 963.632 695.721ZM408.768 730.973c0 23.7219 15.0011 50.4391 38.713 50.4391l129.038 0c23.7119 0 47.1008-26.7173 47.1008-50.4391l0-35.253-214.851 0L408.768 730.973ZM817.358 85.78499999999997c0-59.289-52.512-99.1967-111.801-99.1967l-387.114 0c-59.2902 0-103.414 39.9065-103.414 99.1967l0 566.47 150.272 0 300.543 0 151.514 0L817.358 85.78499999999997ZM515.572 537.4169999999999c-11.8876 0-21.1125-9.62981-21.1125-21.5062l0-365.606c0-11.8765 9.22494-21.5062 21.1125-21.5062s21.1125 9.62981 21.1125 21.5062l0 365.606C536.685 527.787 527.459 537.4169999999999 515.572 537.4169999999999ZM343.568 494.404c-11.8876 0-21.7337-9.62981-21.7337-21.5062L321.834 193.31500000000005c0-11.8765 9.8459-21.5062 21.7337-21.5062s21.7337 9.62981 21.7337 21.5062l0 279.583C365.301 484.775 355.454 494.404 343.568 494.404ZM644.732 472.897L644.732 193.31500000000005c0-11.8765 9.8459-21.5062 21.7337-21.5062s21.7337 9.62981 21.7337 21.5062l0 279.583c0 11.8765-9.8459 21.5062-21.7337 21.5062S644.732 484.775 644.732 472.897Z"  horiz-adv-x="1024" />

    
    <glyph glyph-name="xiazai" unicode="&#58896;" d="M957.527564-59.687012c0-42.847877-34.721803-77.589123-77.589123-77.589123L142.832568-137.276135c-42.8489 0-77.589123 34.741245-77.589123 77.589123L65.243445 147.89986c-1.25048 5.41636 0.075725 12.019755 4.612041 19.197224l191.314257 302.944684c11.403724 18.042935 38.188764 32.800034 59.518558 32.800034l132.505873 0 0-38.795585-111.100354 0c-21.328771 0-48.114834-14.756075-59.518558-32.800034l-157.804049-257.973446 384.92993-0.13303c-4.906753 0.189312-9.585309 2.046612-13.032828 5.446036l-115.741048 114.538663c-4.356214 4.26207-5.910617 10.000771-5.285377 15.552208 0 0.066515-0.037862 0.122797-0.037862 0.189312 0 10.711969 8.696056 19.397792 19.397792 19.397792l96.930633 0L491.932454 716.641165c0 10.522658 8.713452 19.046798 19.455097 19.046798 10.739599 0 19.454074-8.524141 19.454074-19.046798l0-388.376425 96.931656 0c10.70276 0 19.395746-8.685823 19.395746-19.397792 0-0.578168-0.281409-1.061169-0.320295-1.629103 0.13303-5.030573-1.667989-10.106172-5.606695-13.960966L524.13283 178.586766c-3.447519-3.399423-8.125051-5.257747-13.030781-5.446036l190.753485-0.057305 3.504824 0 195.699124 0L756.031411 430.470517c-10.683317 18.459421-36.900422 33.576723-58.229193 33.576723L569.576835 464.04724l0 38.795585L720.155319 502.842825c21.329794 0 47.545876-15.107069 58.229193-33.576723L952.887894 167.856377c2.954285-5.076622 4.28049-9.851369 4.431939-14.169721l0.207731 0L957.527564-59.687012zM104.036983 173.084449 104.036983 173.084449l0-19.396769 0 0L104.036983 173.084449zM582.365092 289.469156 439.270047 289.469156l71.131037-70.496587L582.365092 289.469156zM647.166981 114.890049l0 19.398816 0 38.794561L375.601982 173.083425l0-38.794561L375.601982 114.890049l0-38.794561c0-10.721179 8.696056-19.396769 19.397792-19.396769l232.771461 0c10.70276 0 19.395746 8.676613 19.395746 19.396769L647.166981 114.890049zM685.963589 134.288864l0-77.590146c0-21.423939-17.370623-38.794561-38.796608-38.794561L375.601982 17.904157c-21.423939 0-38.794561 17.371646-38.794561 38.794561l0 77.590146L104.036983 134.288864l0-193.9769c0-21.423939 17.370623-38.794561 38.794561-38.794561l737.105874 0c21.424962 0 38.794561 17.371646 38.794561 38.794561L918.73198 134.288864l0 0L685.963589 134.288864z"  horiz-adv-x="1024" />

    
    <glyph glyph-name="baocun" unicode="&#58895;" d="M798.525224 793.322479l-28.652574 0-515.746324 0-28.652574 0c-67.538209 0-122.796744-55.258535-122.796744-122.796744l0-573.051471c0-67.538209 55.258535-122.796744 122.796744-122.796744l573.051471 0c67.538209 0 122.796744 55.258535 122.796744 122.796744l0 573.051471C921.321968 738.063945 866.063433 793.322479 798.525224 793.322479zM720.753953 744.203782l0-311.085084-417.508929 0 0 311.085084L720.753953 744.203782zM872.20327 97.474264c0-19.544125-7.701402-38.008662-21.684882-51.993165-13.983479-13.983479-32.448016-21.684882-51.993165-21.684882l-573.051471 0c-19.544125 0-38.009685 7.701402-51.993165 21.684882-13.983479 13.984503-21.684882 32.44904-21.684882 51.993165l0 573.051471c0 19.544125 7.701402 38.008662 21.684882 51.993165 13.983479 13.983479 32.448016 21.684882 51.993165 21.684882l28.652574 0 0-360.203782 515.746324 0 0 360.203782 28.652574 0c19.544125 0 38.009685-7.701402 51.993165-21.684882 13.983479-13.983479 21.684882-32.44904 21.684882-51.993165L872.20327 97.474264zM611.246887 459.4279c13.563924 0 24.559349 10.995425 24.559349 24.559349l0 171.915441c0 13.563924-10.995425 24.559349-24.559349 24.559349s-24.559349-10.995425-24.559349-24.559349l0-171.915441C586.687538 470.423325 597.682963 459.4279 611.246887 459.4279z"  horiz-adv-x="1024" />

    
    <glyph glyph-name="xls" unicode="&#58999;" d="M601.17 698.184v-49.0922h118.884v-88.3688h-118.884v-19.6313h118.884v-88.3688h-118.884v-19.6313h118.884v-98.1844h-118.884v-19.6313h118.884v-88.3688h-118.884v-19.6313h118.884v-88.3688h-118.884v-49.0922h346.767v628.369h-346.767ZM878.581 118.90800000000001h-138.712v88.3688h138.712v-88.3688ZM878.581 226.90800000000001h-138.712v88.3688h138.712v-88.3688ZM878.581 334.908h-138.712v98.1844h138.712v-98.1844ZM878.581 452.723h-138.712v88.3688h138.712v-88.3688ZM878.581 560.738h-138.712v88.3688h138.712v-88.3688ZM76.062 59.98599999999999l505.294-88.3688v824.752l-505.294-88.3688v-648.014ZM197.014 529.462h89.8031l46.7016-90.6188 45.4359 90.6188h88.9031l-82.125-142.65 89.8594-151.889h-91.6031l-52.1016 94.6266-52.1016-94.6266h-91.0406l90.9984 153.506-82.7297 141.033Z"  horiz-adv-x="1024" />

    
    <glyph glyph-name="shangjiantou" unicode="&#58880;" d="M119.64101943 187.82050928l392.35898057 392.35898144 392.35898057-392.35898144z"  horiz-adv-x="1024" />

    
    <glyph glyph-name="xiajiantou" unicode="&#58881;" d="M119.64101943 580.17949072l392.35898057-392.35898144 392.35898057 392.35898144z"  horiz-adv-x="1024" />

    
    <glyph glyph-name="niantie" unicode="&#59102;" d="M348.16 783.36c0 22.528 18.432 40.96 40.96 40.96h122.88c22.528 0 40.96-18.432 40.96-40.96h153.6c57.344 0 102.4-45.056 102.4-102.4v-26.624c0-12.288-8.192-20.48-20.48-20.48s-20.48 8.192-20.48 20.48V680.96c0 34.816-26.624 61.44-61.44 61.44h-512c-34.816 0-61.44-26.624-61.44-61.44v-532.48c0-34.816 26.624-61.44 61.44-61.44h32.768c12.288 0 20.48-8.192 20.48-20.48s-8.192-20.48-20.48-20.48h-32.768c-57.344 0-102.4 45.056-102.4 102.4v532.48c0 57.344 45.056 102.4 102.4 102.4h153.6z m583.68-583.68c0-12.288-8.192-20.48-20.48-20.48s-20.48 8.192-20.48 20.48V455.68c0 34.816-26.624 61.44-61.44 61.44h-409.6c-34.816 0-61.44-26.624-61.44-61.44v-409.6c0-34.816 26.624-61.44 61.44-61.44h409.6c34.816 0 61.44 26.624 61.44 61.44v45.056c0 12.288 8.192 20.48 20.48 20.48s20.48-8.192 20.48-20.48v-45.056c0-57.344-45.056-102.4-102.4-102.4h-409.6c-57.344 0-102.4 45.056-102.4 102.4v409.6c0 57.344 45.056 102.4 102.4 102.4h409.6c57.344 0 102.4-45.056 102.4-102.4v-256z m-686.08 419.84c-12.288 0-20.48 8.192-20.48 20.48s8.192 20.48 20.48 20.48h61.44c12.288 0 20.48-8.192 20.48-20.48s-8.192-20.48-20.48-20.48h-61.44z m163.84 0c-12.288 0-20.48 8.192-20.48 20.48s8.192 20.48 20.48 20.48h245.76c12.288 0 20.48-8.192 20.48-20.48s-8.192-20.48-20.48-20.48h-245.76z"  horiz-adv-x="1024" />

    
    <glyph glyph-name="charulie" unicode="&#59117;" d="M286.72 414.72h-122.88v-409.6h-40.96v450.56h204.8v-450.56h-40.96v409.6z m573.44 0h-122.88v-409.6h-40.96v450.56h204.8v-450.56h-40.96v409.6z m-280.576-403.456l-67.584 67.584-67.584-67.584c-8.192-8.192-20.48-8.192-28.672 0-8.192 8.192-8.192 20.48 0 28.672l96.256 96.256 96.256-96.256c8.192-8.192 8.192-20.48 0-28.672-8.192-8.192-20.48-8.192-28.672 0zM409.6 250.88v512h204.8v-512h-204.8z m163.84 40.96v430.08h-122.88v-430.08h122.88z"  horiz-adv-x="1024" />

    
    <glyph glyph-name="charuhang" unicode="&#59118;" d="M552.96 609.28v122.88h-409.6v40.96h450.56v-204.8h-450.56v40.96h409.6z m0-573.44v122.88h-409.6v40.96h450.56v-204.8h-450.56v40.96h409.6z m-292.864 415.744l-67.584-67.584 67.584-67.584c8.192-8.192 8.192-20.48 0-28.672-8.192-8.192-20.48-8.192-28.672 0l-96.256 96.256 96.256 96.256c8.192 8.192 20.48 8.192 28.672 0 8.192-8.192 8.192-20.48 0-28.672z m129.024 34.816h512v-204.8h-512v204.8z m40.96-163.84h430.08v122.88h-430.08v-122.88z"  horiz-adv-x="1024" />

    
    <glyph glyph-name="shanchulie" unicode="&#59119;" d="M540.672 107.52l67.584 67.584c8.192 8.192 8.192 20.48 0 28.672-8.192 8.192-20.48 8.192-28.672 0l-67.584-67.584-67.584 67.584c-8.192 8.192-20.48 8.192-28.672 0-8.192-8.192-8.192-20.48 0-28.672l67.584-67.584-67.584-67.584c-8.192-8.192-8.192-20.48 0-28.672 8.192-8.192 20.48-8.192 28.672 0l67.584 67.584 67.584-67.584c8.192-8.192 20.48-8.192 28.672 0 8.192 8.192 8.192 20.48 0 28.672l-67.584 67.584z m-253.952 307.2h-122.88v-409.6h-40.96v450.56h204.8v-450.56h-40.96v409.6z m573.44 0h-122.88v-409.6h-40.96v450.56h204.8v-450.56h-40.96v409.6z m-450.56-61.44v409.6h204.8v-409.6h-204.8z m163.84 40.96v327.68h-122.88v-327.68h122.88z"  horiz-adv-x="1024" />

    
    <glyph glyph-name="shanchuhang" unicode="&#59120;" d="M235.52 355.328l67.584-67.584c8.192-8.192 20.48-8.192 28.672 0 8.192 8.192 8.192 20.48 0 28.672l-67.584 67.584 67.584 67.584c8.192 8.192 8.192 20.48 0 28.672-8.192 8.192-20.48 8.192-28.672 0l-67.584-67.584-67.584 67.584c-8.192 8.192-20.48 8.192-28.672 0-8.192-8.192-8.192-20.48 0-28.672l67.584-67.584-67.584-67.584c-8.192-8.192-8.192-20.48 0-28.672 8.192-8.192 20.48-8.192 28.672 0l67.584 67.584z m307.2 253.952v122.88h-409.6v40.96h450.56v-204.8h-450.56v40.96h409.6z m0-573.44v122.88h-409.6v40.96h450.56v-204.8h-450.56v40.96h409.6z m-61.44 450.56h409.6v-204.8h-409.6v204.8z m40.96-163.84h327.68v122.88h-327.68v-122.88z"  horiz-adv-x="1024" />

    
    <glyph glyph-name="jianqie" unicode="&#59125;" d="M409.6 250.88c26.624-30.72 40.96-69.632 40.96-112.64 0-96.256-77.824-174.08-174.08-174.08s-174.08 77.824-174.08 174.08 77.824 174.08 174.08 174.08c20.48 0 38.912-4.096 57.344-10.24l120.832 137.216-231.424 313.344v61.44l280.576-319.488 280.576 319.488v-61.44l-231.424-313.344 120.832-137.216c45.056 16.384 96.256 12.288 143.36-12.288 77.824-43.008 110.592-139.264 75.776-221.184-4.096-10.24-16.384-14.336-26.624-10.24-10.24 4.096-14.336 16.384-10.24 26.624 26.624 61.44 2.048 135.168-57.344 167.936-63.488 34.816-145.408 12.288-182.272-51.2s-12.288-145.408 53.248-180.224c36.864-20.48 79.872-22.528 116.736-6.144 10.24 4.096 22.528 0 26.624-10.24 4.096-10.24 0-22.528-10.24-26.624-49.152-20.48-104.448-18.432-151.552 8.192-83.968 47.104-114.688 153.6-67.584 237.568 6.144 10.24 12.288 18.432 18.432 26.624l-92.16 124.928-100.352-124.928z m-133.12-245.76c73.728 0 133.12 59.392 133.12 133.12s-59.392 133.12-133.12 133.12-133.12-59.392-133.12-133.12 59.392-133.12 133.12-133.12z m225.28 409.6c12.288 0 20.48 8.192 20.48 20.48s-8.192 20.48-20.48 20.48-20.48-8.192-20.48-20.48 8.192-20.48 20.48-20.48z"  horiz-adv-x="1024" />

    
    <glyph glyph-name="sort_icon" unicode="&#58984;" d="M428.72660398 701.48022011A17.65653142 17.65653142 0 0 1 408.88687492 694.36414147L267.44367335 482.20570413A17.68199144 17.68199144 0 1 1 296.86273903 462.58875033l109.05167729 163.58069842v-542.73784334a17.68199144 17.68199144 0 1 1 35.35761788 0V684.5620295900001a17.68199144 17.68199144 0 0 1-12.54543022 16.91819052zM751.64890571 310.30594061a17.67562643 17.67562643 0 0 1-24.51800976-4.90105595l-109.05167728-163.58069843V684.5620295900001a17.68199144 17.68199144 0 0 1-35.35761789 0v-601.13042419a17.68199144 17.68199144 0 0 1 12.55179524-16.91819052 17.49104122 17.49104122 0 0 1 5.13019621-0.75743591A17.67562643 17.67562643 0 0 1 615.11312508 73.6231285L756.55632665 285.78793086999997a17.66926144 17.66926144 0 0 1-4.90742094 24.51800974z"  horiz-adv-x="1024" />

    
    <glyph glyph-name="jiangxu" unicode="&#59005;" d="M87.04 748.16c-14.72 0-25.6-11.52-25.6-25.6 0-14.72 11.52-25.6 25.6-25.6H505.6c14.72 0 25.6 11.52 25.6 25.6 0 14.72-11.52 25.6-25.6 25.6H87.04z m73.6-222.08c-14.72 0-25.6-11.52-25.6-25.6 0-14.72 11.52-25.6 25.6-25.6H505.6c14.72 0 25.6 11.52 25.6 25.6 0 14.72-11.52 25.6-25.6 25.6H160.64zM236.8 298.24c-14.72 0-25.6-11.52-25.6-25.6s11.52-25.6 25.6-25.6h268.8c14.72 0 25.6 11.52 25.6 25.6s-11.52 25.6-25.6 25.6H236.8zM312.96 70.4c-14.72 0-25.6-11.52-25.6-25.6 0-14.72 11.52-25.6 25.6-25.6H505.6c14.72 0 25.6 11.52 25.6 25.6 0 14.72-11.52 25.6-25.6 25.6H312.96z m309.76 48c-8.96 0-12.8-10.24-7.04-16.64l157.44-157.44c3.84-3.84 10.24-3.84 14.08 0l157.44 157.44c6.4 6.4 1.92 16.64-6.4 16.64h-131.2V801.92c0 14.72-11.52 25.6-25.6 25.6-14.72 0-25.6-11.52-25.6-25.6v-683.52H622.72z"  horiz-adv-x="1024" />

    
    <glyph glyph-name="shengxu" unicode="&#59006;" d="M87.04 21.12H505.6c14.72 0 25.6 11.52 25.6 25.6 0 14.72-11.52 25.6-25.6 25.6H87.04c-14.72 0-25.6-11.52-25.6-25.6s11.52-25.6 25.6-25.6zM160.64 243.2H505.6c14.72 0 25.6 11.52 25.6 25.6 0 14.72-11.52 25.6-25.6 25.6H160.64c-14.72 0-25.6-11.52-25.6-25.6-0.64-14.08 10.88-25.6 25.6-25.6zM236.8 471.04h268.8c14.72 0 25.6 11.52 25.6 25.6 0 14.72-11.52 25.6-25.6 25.6H236.8c-14.72 0-25.6-11.52-25.6-25.6s10.88-25.6 25.6-25.6z m76.16 227.84H505.6c14.72 0 25.6 11.52 25.6 25.6 0 14.72-11.52 25.6-25.6 25.6H312.96c-14.72 0-25.6-11.52-25.6-25.6 0-14.72 11.52-25.6 25.6-25.6z m309.76-47.36h131.2V-32c0-14.72 11.52-25.6 25.6-25.6 14.72 0 25.6 11.52 25.6 25.6V651.52h131.2c8.96 0 12.8 10.24 6.4 16.64L787.2 824.96c-3.84 3.84-9.6 3.84-14.08 0L615.68 667.52c-5.76-5.76-1.28-16 7.04-16z"  horiz-adv-x="1024" />

    
    <glyph glyph-name="fuzhi1" unicode="&#59110;" d="M888.68 800.58h-594.48a41.64 41.64 0 0 1-41.82-41.82v-594.48c0-23.22 18.6-41.82 41.82-41.82h594.48c23.22 0 41.82 18.6 41.82 41.82v594.48c0.9 23.28-18.6 41.82-41.82 41.82z m-598.44-640.92V762.96h604.32v-603.3H290.24z m468.3-71.52h-9.24c13.02 0 24.18-10.2 22.32-23.22v-55.74c0-23.22-18.6-41.82-41.82-41.82h-594.48a41.64 41.64 0 0 0-41.82 41.82v594.48c0 23.22 18.6 41.82 41.82 41.82h63.18c13.02 0 18.9-4.5 18.9-17.52 0-13.02-5.88-22.02-18.9-22.02h-69.48v-600h608.64v58.98c0 13.02 7.86 23.22 20.88 23.22zM565.82 504h-120v-42h120v-120h42v120h120v42h-120v120h-42v-120z"  horiz-adv-x="1024" />

    
    <glyph glyph-name="redo1" unicode="&#58898;" d="M871.1168 536.576c11.1616-11.1616 11.1616-29.184 0-40.3456L800.768 425.8816l-1.4336-1.4336-71.7824-71.9872c-5.12-4.9152-12.5952-8.0896-20.2752-8.0896-15.7696 0-28.3648 12.6976-28.3648 28.3648V487.936H376.7296c-48.0256 0-91.648-19.6608-123.6992-51.5072l-0.4096-0.4096c-31.232-31.6416-50.688-75.0592-50.688-123.0848 0-48.2304 19.456-91.8528 51.0976-123.4944l0.8192-0.512c31.6416-31.5392 75.0592-51.0976 122.88-51.0976h398.7456c15.7696 0 28.5696-12.9024 28.5696-28.7744 0-15.6672-12.8-28.4672-28.5696-28.4672H376.7296c-63.6928 0-121.6512 26.2144-163.84 68.1984-42.1888 42.1888-68.096 100.352-68.096 164.0448 0 63.6928 25.9072 121.6512 68.096 163.84v0.2048c42.1888 41.7792 100.1472 68.096 163.84 68.096H678.912V659.8656c0 7.5776 2.8672 14.5408 8.0896 20.2752 11.1616 11.1616 29.3888 11.1616 40.3456 0l70.3488-70.3488 1.6384-1.2288 71.7824-71.9872z m-135.0656-94.5152l22.7328 22.6304 1.6384 1.6384 50.0736 50.0736-51.712 51.4048-1.2288 1.6384-21.504 21.4016v-148.7872z m0 73.4208"  horiz-adv-x="1024" />

    
    <glyph glyph-name="undo1" unicode="&#58901;" d="M152.7808 536.576l71.7824 71.9872 1.6384 1.2288 70.3488 70.3488c10.9568 11.1616 29.184 11.1616 40.3456 0 5.3248-5.7344 8.0896-12.8 8.0896-20.2752v-114.7904H647.168c63.6928 0 121.6512-26.3168 163.84-68.096v-0.2048c42.1888-42.1888 68.096-100.1472 68.096-163.84s-25.9072-121.856-68.096-164.0448c-42.1888-41.984-100.1472-68.1984-163.84-68.1984H248.5248c-15.7696 0-28.5696 12.8-28.5696 28.4672 0 15.7696 12.8 28.7744 28.5696 28.7744H647.168c47.8208 0 91.2384 19.5584 122.88 51.0976l0.8192 0.512c31.6416 31.6416 51.0976 75.1616 51.0976 123.4944 0 48.0256-19.456 91.4432-50.688 123.0848l-0.4096 0.4096c-32.0512 31.8464-75.5712 51.5072-123.6992 51.5072H345.088V372.736c0-15.6672-12.5952-28.3648-28.3648-28.3648-7.68 0-15.1552 3.1744-20.2752 8.0896l-71.7824 71.9872-1.4336 1.4336-70.3488 70.3488c-11.264 11.1616-11.264 29.184-0.1024 40.3456z m135.0656-21.0944V590.848l-21.504-21.4016-1.2288-1.6384-51.712-51.3024 50.0736-50.0736 1.6384-1.6384 22.7328-22.6304v73.3184z m0 0"  horiz-adv-x="1024" />

    
    <glyph glyph-name="shezhi" unicode="&#58970;" d="M239.21 541.5c-28.89-49.995-76.275-84.195-127.17-93.51a408.33 408.33 0 0 1 0-127.98c50.85-9.315 98.28-43.515 127.17-93.51 28.845-49.95 34.785-108.135 17.37-156.825a404.505 404.505 0 0 1 110.835-64.125C400.85 45.014999999999986 454.265 69 512 69c57.78 0 111.105-23.985 144.585-63.45a404.505 404.505 0 0 1 110.835 64.125c-17.415 48.69-11.475 106.83 17.37 156.825 28.89 49.995 76.275 84.195 127.17 93.51a408.33 408.33 0 0 1 0 127.98c-50.85 9.315-98.28 43.515-127.17 93.51-28.845 49.95-34.785 108.135-17.37 156.825a404.505 404.505 0 0 1-110.835 64.125C623.15 722.985 569.735 699 512 699c-57.78 0-111.105 23.985-144.585 63.45a404.505 404.505 0 0 1-110.835-64.125c17.415-48.69 11.475-106.83-17.37-156.825z m-38.34 167.625A449.55 449.55 0 0 0 385.955 816.09C405.44 773.925 454.535 744 512 744c57.465 0 106.56 29.925 126 72.09a449.55 449.55 0 0 0 185.13-106.965c-26.73-37.98-28.08-95.4 0.63-145.125 28.755-49.77 79.2-77.31 125.46-73.08 8.37-34.29 12.78-70.065 12.78-106.92s-4.41-72.63-12.78-106.92c-46.26 4.23-96.75-23.31-125.46-73.08-28.71-49.725-27.36-107.145-0.63-145.125a449.55 449.55 0 0 0-185.085-106.965C618.56-5.9249999999999545 569.465 24 512 24c-57.465 0-106.56-29.925-126-72.09a449.55 449.55 0 0 0-185.13 106.965c26.73 37.98 28.08 95.4-0.63 145.125-28.755 49.77-79.2 77.31-125.46 73.08A451.08 451.08 0 0 0 62 384c0 36.855 4.41 72.63 12.78 106.92 46.26-4.23 96.75 23.31 125.46 73.08 28.71 49.725 27.36 107.145 0.63 145.125zM512 226.5a157.5 157.5 0 1 0 0 315 157.5 157.5 0 0 0 0-315z m0 45a112.5 112.5 0 1 1 0 225 112.5 112.5 0 0 1 0-225z"  horiz-adv-x="1024" />

    
    <glyph glyph-name="suoding" unicode="&#58971;" d="M204.8 486.4a51.2 51.2 0 0 1-51.2-51.2v-409.6a51.2 51.2 0 0 1 51.2-51.2h614.4a51.2 51.2 0 0 1 51.2 51.2V435.2a51.2 51.2 0 0 1-51.2 51.2H204.8z m0 51.2h614.4a102.4 102.4 0 0 0 102.4-102.4v-409.6a102.4 102.4 0 0 0-102.4-102.4H204.8a102.4 102.4 0 0 0-102.4 102.4V435.2a102.4 102.4 0 0 0 102.4 102.4zM409.6 307.2h256a25.6 25.6 0 1 1 0 51.2H409.6a25.6 25.6 0 1 1 0-51.2zM768 537.6V588.8A256 256 0 0 1 256 588.8v-51.2h512z m-256 358.4a307.2 307.2 0 0 0 307.2-307.2v-102.4H204.8V588.8a307.2 307.2 0 0 0 307.2 307.2z"  horiz-adv-x="1024" />

    
    <glyph glyph-name="zuixiaohua" unicode="&#58986;" d="M256 588.8H204.8a51.2 51.2 0 0 1-51.2-51.2v-460.8a51.2 51.2 0 0 1 51.2-51.2h460.8a51.2 51.2 0 0 1 51.2 51.2v51.2H358.4a102.4 102.4 0 0 0-102.4 102.4V588.8z m51.2 51.2v-409.6a51.2 51.2 0 0 1 51.2-51.2h409.6v-102.4a102.4 102.4 0 0 0-102.4-102.4H204.8a102.4 102.4 0 0 0-102.4 102.4V537.6a102.4 102.4 0 0 0 102.4 102.4h102.4zM358.4 742.4a51.2 51.2 0 0 1-51.2-51.2v-460.8a51.2 51.2 0 0 1 51.2-51.2h460.8a51.2 51.2 0 0 1 51.2 51.2V691.2a51.2 51.2 0 0 1-51.2 51.2H358.4z m0 51.2h460.8a102.4 102.4 0 0 0 102.4-102.4v-460.8a102.4 102.4 0 0 0-102.4-102.4H358.4a102.4 102.4 0 0 0-102.4 102.4V691.2a102.4 102.4 0 0 0 102.4 102.4z"  horiz-adv-x="1024" />

    
    <glyph glyph-name="yishenhe" unicode="&#58989;" d="M456.310154 239.970462L275.298462 421.021538a19.692308 19.692308 0 1 1-27.884308-27.844923l194.953846-194.953846a19.613538 19.613538 0 0 1 27.844923 0l306.372923 306.372923a19.692308 19.692308 0 1 1-27.844923 27.844923l-292.430769-292.430769z"  horiz-adv-x="1024" />

    
    <glyph glyph-name="zengjia" unicode="&#58990;" d="M492.307692 384h-196.923077a19.692308 19.692308 0 0 1 0-39.384615h196.923077v-196.923077a19.692308 19.692308 0 1 1 39.384616 0v196.923077h196.923077a19.692308 19.692308 0 1 1 0 39.384615h-196.923077V580.923077a19.692308 19.692308 0 0 1-39.384616 0v-196.923077z"  horiz-adv-x="1024" />

    
    <glyph glyph-name="xiugai" unicode="&#58991;" d="M295.384615 187.076923h433.23077a19.692308 19.692308 0 1 0 0-39.384615h-433.23077a19.692308 19.692308 0 1 0 0 39.384615zM590.769231 592.423385L618.653538 620.307692l72.979693-73.019077-27.844923-27.844923L590.769231 592.423385z m-236.307693-196.923077L382.345846 423.384615l89.284923-89.324307-27.844923-27.844923L354.461538 395.500308zM401.329231 279.158154l308.342154 308.342154-55.689847 55.689846-308.381538-308.342154-8.152615-63.881846 63.881846 8.192z m-93.065846 74.043077l317.833846 317.833846a39.384615 39.384615 0 0 0 55.729231 0l55.689846-55.689846a39.384615 39.384615 0 0 0 0-55.689846l-317.833846-317.833847-127.763693-16.344615 16.344616 127.724308z"  horiz-adv-x="1024" />

    
    <glyph glyph-name="chexiao" unicode="&#58995;" d="M523.894154 399.753846L356.785231 566.823385a19.692308 19.692308 0 0 1-27.844923-27.844923l167.069538-167.108924-167.069538-167.069538a19.692308 19.692308 0 1 1 27.844923-27.844923l167.108923 167.069538 167.069538-167.069538a19.692308 19.692308 0 1 1 27.844923 27.844923l-167.069538 167.069538 167.069538 167.108924a19.692308 19.692308 0 1 1-27.844923 27.844923L523.894154 399.753846z"  horiz-adv-x="1024" />

    
    <glyph glyph-name="chazhao" unicode="&#58996;" d="M492.307692 167.384615a236.307692 236.307692 0 1 0 0 472.615385 236.307692 236.307692 0 0 0 0-472.615385z m0 39.384616a196.923077 196.923077 0 1 1 0 393.846154 196.923077 196.923077 0 0 1 0-393.846154zM616.487385 212.519385l111.458461-111.379693a19.692308 19.692308 0 1 1 27.844923 27.844923l-111.458461 111.419077a19.692308 19.692308 0 0 1-27.844923-27.884307z"  horiz-adv-x="1024" />

    
    <glyph glyph-name="dayin" unicode="&#58997;" d="M787.692308 344.615385V541.538462H236.307692v-196.923077h78.769231v78.76923h393.846154v-78.76923h78.769231z m-118.153846-39.384616v78.769231H354.461538v-78.769231H236.307692a39.384615 39.384615 0 0 0-39.384615 39.384616V541.538462a39.384615 39.384615 0 0 0 39.384615 39.384615h551.384616a39.384615 39.384615 0 0 0 39.384615-39.384615v-196.923077a39.384615 39.384615 0 0 0-39.384615-39.384616h-118.153846zM354.461538 384v-236.307692h315.076924v236.307692H354.461538z m0 39.384615h315.076924a39.384615 39.384615 0 0 0 39.384615-39.384615v-236.307692a39.384615 39.384615 0 0 0-39.384615-39.384616H354.461538a39.384615 39.384615 0 0 0-39.384615 39.384616v236.307692a39.384615 39.384615 0 0 0 39.384615 39.384615zM354.461538 620.307692v-39.384615h315.076924V620.307692H354.461538z m0 39.384616h315.076924a39.384615 39.384615 0 0 0 39.384615-39.384616v-39.384615a39.384615 39.384615 0 0 0-39.384615-39.384615H354.461538a39.384615 39.384615 0 0 0-39.384615 39.384615V620.307692a39.384615 39.384615 0 0 0 39.384615 39.384616zM413.538462 265.846154h197.12a19.692308 19.692308 0 0 1 0 39.384615H413.538462a19.692308 19.692308 0 1 1 0-39.384615zM413.538462 187.076923h197.12a19.692308 19.692308 0 0 1 0 39.384615H413.538462a19.692308 19.692308 0 1 1 0-39.384615z"  horiz-adv-x="1024" />

    
    <glyph glyph-name="shuaxin" unicode="&#59010;" d="M747.992615 525.784615a275.692308 275.692308 0 1 1 36.312616-104.763077l-35.209846-16.384a238.946462 238.946462 0 1 0-34.579693 105.55077l33.476923 15.596307zM748.307692 501.996308l1.181539 146.274461a19.692308 19.692308 0 1 1-39.384616 0.315077L708.923077 502.311385a19.692308 19.692308 0 1 1 39.384615-0.315077z"  horiz-adv-x="1024" />

    
    <glyph glyph-name="guolv" unicode="&#59011;" d="M283.884308 600.615385h456.231384l-169.865846-169.747693a19.692308 19.692308 0 0 1-5.750154-13.942154v-300.347076l-42.653538 42.614153a19.692308 19.692308 0 1 1-27.844923-27.844923l76.248615-76.20923a19.692308 19.692308 0 0 1 33.634462 13.942153v339.692308l197.710769 197.592615A19.692308 19.692308 0 0 1 787.692308 640H236.307692a19.692308 19.692308 0 0 1-13.902769-33.634462l212.795077-212.637538v-199.601231a19.692308 19.692308 0 1 1 39.384615 0v207.753846a19.692308 19.692308 0 0 1-5.789538 13.942154L283.884308 600.615385z"  horiz-adv-x="1024" />

    
    <glyph glyph-name="fenlei" unicode="&#59024;" d="M531.692308 620.307692h236.307692a19.692308 19.692308 0 0 0 0-39.384615h-236.307692a19.692308 19.692308 0 1 0 0 39.384615z m0-315.076923h236.307692a19.692308 19.692308 0 0 0 0-39.384615h-236.307692a19.692308 19.692308 0 0 0 0 39.384615z m0 196.923077h236.307692a19.692308 19.692308 0 0 0 0-39.384615h-236.307692a19.692308 19.692308 0 0 0 0 39.384615z m0-315.076923h236.307692a19.692308 19.692308 0 1 0 0-39.384615h-236.307692a19.692308 19.692308 0 1 0 0 39.384615zM275.692308 620.307692v-157.538461h157.538461V620.307692H275.692308z m0 39.384616h157.538461a39.384615 39.384615 0 0 0 39.384616-39.384616v-157.538461a39.384615 39.384615 0 0 0-39.384616-39.384616H275.692308a39.384615 39.384615 0 0 0-39.384616 39.384616V620.307692a39.384615 39.384615 0 0 0 39.384616 39.384616zM275.692308 305.230769v-157.538461h157.538461v157.538461H275.692308z m0 39.384616h157.538461a39.384615 39.384615 0 0 0 39.384616-39.384616v-157.538461a39.384615 39.384615 0 0 0-39.384616-39.384616H275.692308a39.384615 39.384615 0 0 0-39.384616 39.384616v157.538461a39.384615 39.384615 0 0 0 39.384616 39.384616z"  horiz-adv-x="1024" />

    
    <glyph glyph-name="shangyi" unicode="&#59026;" d="M546.028308 557.843692V167.384615a19.692308 19.692308 0 1 0-39.384616 0V555.008l-197.316923-197.316923a19.692308 19.692308 0 0 0-27.884307 27.844923l222.798769 222.798769a19.613538 19.613538 0 0 0 6.498461 4.332308 19.692308 19.692308 0 0 0 30.28677 1.063385 19.613538 19.613538 0 0 0 10.24-5.395693l222.759384-222.798769a19.692308 19.692308 0 0 0-27.844923-27.844923l-200.152615 200.152615z"  horiz-adv-x="1024" />

    
    <glyph glyph-name="xiayi" unicode="&#59027;" d="M546.028308 210.156308V600.615385a19.692308 19.692308 0 1 1-39.384616 0v-387.623385l-197.316923 197.316923a19.692308 19.692308 0 0 1-27.884307-27.844923l222.798769-222.798769a19.613538 19.613538 0 0 1 6.498461-4.332308 19.692308 19.692308 0 0 1 30.28677-1.063385 19.613538 19.613538 0 0 1 10.24 5.395693l222.759384 222.798769a19.692308 19.692308 0 0 1-27.844923 27.844923l-200.152615-200.152615z"  horiz-adv-x="1024" />

    
    <glyph glyph-name="paixu" unicode="&#59227;" d="M755.4 465.5c0-8.2-3-15.4-9-21.4-6-6-13.2-9-21.4-9H299c-8.2 0-15.4 3-21.4 9-6 6-9 13.1-9 21.4 0 8.2 3 15.4 9 21.4l213 213c6 6 13.1 9 21.4 9 8.2 0 15.4-3 21.4-9l213-213c6-6 9-13.1 9-21.4z m-9-161.1c6-6 9-13.2 9-21.4s-3-15.4-9-21.4l-213-213c-6-6-13.2-9-21.4-9s-15.4 3-21.4 9l-213 213c-6 6-9 13.1-9 21.4 0 8.2 3 15.4 9 21.4 6 6 13.1 9 21.4 9h426c8.3 0 15.4-3 21.4-9z"  horiz-adv-x="1024" />

    


  </font>
</defs>
</svg>
